HIERARCHY
ROOT reference
{
  OFFSET 0 0 0
  CHANNELS 6 Xposition Yposition Zposition Zrotation Xrotation Yrotation
  JOINT Hips
  {
    OFFSET 44.6805 85.9651 -20.1189
    CHANNELS 3 Zrotation Xrotation Yrotation
    JOINT RightUpLeg
    {
      OFFSET -9.20028 -1.61905 0.0313892
      CHANNELS 3 Zrotation Xrotation Yrotation
      JOINT RightLeg
      {
        OFFSET 0.0920446 -41.8676 0.113709
        CHANNELS 3 Zrotation Xrotation Yrotation
        JOINT RightFoot
        {
          OFFSET -0.78009 -42.2818 -0.985537
          CHANNELS 3 Zrotation Xrotation Yrotation
          End Site
          {
            OFFSET 0 -7.69 17.5
          }
        }
      }
    }
    JOINT LeftUpLeg
    {
      OFFSET 9.33559 -1.63058 -0.0435578
      CHANNELS 3 Zrotation Xrotation Yrotation
      JOINT LeftLeg
      {
        OFFSET 0.124601 -41.8685 -0.0153308
        CHANNELS 3 Zrotation Xrotation Yrotation
        JOINT LeftFoot
        {
          OFFSET -0.885525 -42.178 -0.480441
          CHANNELS 3 Zrotation Xrotation Yrotation
          End Site
          {
            OFFSET 0 -7.69 17.5
          }
        }
      }
    }
    JOINT Spine
    {
      OFFSET -0.030151 14.2977 0.0632059
      CHANNELS 3 Zrotation Xrotation Yrotation
      JOINT Spine1
      {
        OFFSET -0.0449239 9.71163 -4.69081e-05
        CHANNELS 3 Zrotation Xrotation Yrotation
        JOINT Spine2
        {
          OFFSET 0.0275009 10.1133 -0.0283136
          CHANNELS 3 Zrotation Xrotation Yrotation
          JOINT Spine3
          {
            OFFSET 0.0288761 9.7229 -0.000806902
            CHANNELS 3 Zrotation Xrotation Yrotation
            JOINT Neck
            {
              OFFSET -0.0518603 10.2949 0.241895
              CHANNELS 3 Zrotation Xrotation Yrotation
              JOINT Head
              {
                OFFSET -0.275401 9.55953 0.0709142
                CHANNELS 3 Zrotation Xrotation Yrotation
                End Site
                {
                  OFFSET 0 15.95 0
                }
              }
            }
            JOINT RightShoulder
            {
              OFFSET -3.17286 6.95881 0.00543218
              CHANNELS 3 Zrotation Xrotation Yrotation
              JOINT RightArm
              {
                OFFSET -12.7612 0.039846 0.0411956
                CHANNELS 3 Zrotation Xrotation Yrotation
                JOINT RightForeArm
                {
                  OFFSET -26.5517 0.0729849 0.08211
                  CHANNELS 3 Zrotation Xrotation Yrotation
                  JOINT RightHand
                  {
                    OFFSET -26.0042 -0.0197864 0.0403594
                    CHANNELS 3 Zrotation Xrotation Yrotation
                    JOINT RightHandThumb1
                    {
                      OFFSET -2.48905 0.190105 3.12053
                      CHANNELS 3 Zrotation Xrotation Yrotation
                      JOINT RightHandThumb2
                      {
                        OFFSET -3.68274 0 0
                        CHANNELS 3 Zrotation Xrotation Yrotation
                        JOINT RightHandThumb3
                        {
                          OFFSET -2.55832 0 0
                          CHANNELS 3 Zrotation Xrotation Yrotation
                          End Site
                          {
                            OFFSET -2.194 0 0
                          }
                        }
                      }
                    }
                    JOINT RightInHandIndex
                    {
                      OFFSET -3.22368 0.508421 1.97842
                      CHANNELS 3 Zrotation Xrotation Yrotation
                      JOINT RightHandIndex1
                      {
                        OFFSET -5.21684 -0.091368 0.999158
                        CHANNELS 3 Zrotation Xrotation Yrotation
                        JOINT RightHandIndex2
                        {
                          OFFSET -3.61937 0 0
                          CHANNELS 3 Zrotation Xrotation Yrotation
                          JOINT RightHandIndex3
                          {
                            OFFSET -2.0521 0 0
                            CHANNELS 3 Zrotation Xrotation Yrotation
                            End Site
                            {
                              OFFSET -1.805 0 0
                            }
                          }
                        }
                      }
                    }
                    JOINT RightInHandMiddle
                    {
                      OFFSET -3.38211 0.517263 0.756737
                      CHANNELS 3 Zrotation Xrotation Yrotation
                      JOINT RightHandMiddle1
                      {
                        OFFSET -5.17411 -0.084 0.313895
                        CHANNELS 3 Zrotation Xrotation Yrotation
                        JOINT RightHandMiddle2
                        {
                          OFFSET -3.94947 0 0
                          CHANNELS 3 Zrotation Xrotation Yrotation
                          JOINT RightHandMiddle3
                          {
                            OFFSET -2.47579 0 0
                            CHANNELS 3 Zrotation Xrotation Yrotation
                            End Site
                            {
                              OFFSET -1.975 0 0
                            }
                          }
                        }
                      }
                    }
                    JOINT RightInHandRing
                    {
                      OFFSET -3.36516 0.537895 -0.128947
                      CHANNELS 3 Zrotation Xrotation Yrotation
                      JOINT RightHandRing1
                      {
                        OFFSET -4.63474 -0.022105 -0.478947
                        CHANNELS 3 Zrotation Xrotation Yrotation
                        JOINT RightHandRing2
                        {
                          OFFSET -3.44238 0 0
                          CHANNELS 3 Zrotation Xrotation Yrotation
                          JOINT RightHandRing3
                          {
                            OFFSET -2.3881 0 0
                            CHANNELS 3 Zrotation Xrotation Yrotation
                            End Site
                            {
                              OFFSET -1.857 0 0
                            }
                          }
                        }
                      }
                    }
                    JOINT RightInHandPinky
                    {
                      OFFSET -3.16105 0.469368 -1.20179
                      CHANNELS 3 Zrotation Xrotation Yrotation
                      JOINT RightHandPinky1
                      {
                        OFFSET -4.14105 -0.022105 -1.09053
                        CHANNELS 3 Zrotation Xrotation Yrotation
                        JOINT RightHandPinky2
                        {
                          OFFSET -2.75653 0 0
                          CHANNELS 3 Zrotation Xrotation Yrotation
                          JOINT RightHandPinky3
                          {
                            OFFSET -1.74189 0 0
                            CHANNELS 3 Zrotation Xrotation Yrotation
                            End Site
                            {
                              OFFSET -1.645 0 0
                            }
                          }
                        }
                      }
                    }
                  }
                }
              }
            }
            JOINT LeftShoulder
            {
              OFFSET 3.22572 6.89245 -0.0537601
              CHANNELS 3 Zrotation Xrotation Yrotation
              JOINT LeftArm
              {
                OFFSET 12.8183 -0.0506887 -0.111983
                CHANNELS 3 Zrotation Xrotation Yrotation
                JOINT LeftForeArm
                {
                  OFFSET 26.4786 -0.0502099 0.0159937
                  CHANNELS 3 Zrotation Xrotation Yrotation
                  JOINT LeftHand
                  {
                    OFFSET 25.8931 -0.161185 0.0946899
                    CHANNELS 3 Zrotation Xrotation Yrotation
                    JOINT LeftHandThumb1
                    {
                      OFFSET 2.48905 0.190105 3.12053
                      CHANNELS 3 Zrotation Xrotation Yrotation
                      JOINT LeftHandThumb2
                      {
                        OFFSET 3.68274 0 0
                        CHANNELS 3 Zrotation Xrotation Yrotation
                        JOINT LeftHandThumb3
                        {
                          OFFSET 2.55832 0 0
                          CHANNELS 3 Zrotation Xrotation Yrotation
                          End Site
                          {
                            OFFSET 2.194 0 0
                          }
                        }
                      }
                    }
                    JOINT LeftInHandIndex
                    {
                      OFFSET 3.22368 0.508421 1.97842
                      CHANNELS 3 Zrotation Xrotation Yrotation
                      JOINT LeftHandIndex1
                      {
                        OFFSET 5.21684 -0.091368 0.999158
                        CHANNELS 3 Zrotation Xrotation Yrotation
                        JOINT LeftHandIndex2
                        {
                          OFFSET 3.61937 0 0
                          CHANNELS 3 Zrotation Xrotation Yrotation
                          JOINT LeftHandIndex3
                          {
                            OFFSET 2.0521 0 0
                            CHANNELS 3 Zrotation Xrotation Yrotation
                            End Site
                            {
                              OFFSET 1.805 0 0
                            }
                          }
                        }
                      }
                    }
                    JOINT LeftInHandMiddle
                    {
                      OFFSET 3.38211 0.517263 0.756737
                      CHANNELS 3 Zrotation Xrotation Yrotation
                      JOINT LeftHandMiddle1
                      {
                        OFFSET 5.17411 -0.084 0.313895
                        CHANNELS 3 Zrotation Xrotation Yrotation
                        JOINT LeftHandMiddle2
                        {
                          OFFSET 3.94947 0 0
                          CHANNELS 3 Zrotation Xrotation Yrotation
                          JOINT LeftHandMiddle3
                          {
                            OFFSET 2.47579 0 0
                            CHANNELS 3 Zrotation Xrotation Yrotation
                            End Site
                            {
                              OFFSET 1.975 0 0
                            }
                          }
                        }
                      }
                    }
                    JOINT LeftInHandRing
                    {
                      OFFSET 3.36516 0.537895 -0.128947
                      CHANNELS 3 Zrotation Xrotation Yrotation
                      JOINT LeftHandRing1
                      {
                        OFFSET 4.63474 -0.022105 -0.478947
                        CHANNELS 3 Zrotation Xrotation Yrotation
                        JOINT LeftHandRing2
                        {
                          OFFSET 3.44238 0 0
                          CHANNELS 3 Zrotation Xrotation Yrotation
                          JOINT LeftHandRing3
                          {
                            OFFSET 2.3881 0 0
                            CHANNELS 3 Zrotation Xrotation Yrotation
                            End Site
                            {
                              OFFSET 1.857 0 0
                            }
                          }
                        }
                      }
                    }
                    JOINT LeftInHandPinky
                    {
                      OFFSET 3.16105 0.469368 -1.20179
                      CHANNELS 3 Zrotation Xrotation Yrotation
                      JOINT LeftHandPinky1
                      {
                        OFFSET 4.14105 -0.022105 -1.09053
                        CHANNELS 3 Zrotation Xrotation Yrotation
                        JOINT LeftHandPinky2
                        {
                          OFFSET 2.75653 0 0
                          CHANNELS 3 Zrotation Xrotation Yrotation
                          JOINT LeftHandPinky3
                          {
                            OFFSET 1.74189 0 0
                            CHANNELS 3 Zrotation Xrotation Yrotation
                            End Site
                            {
                              OFFSET 1.645 0 0
                            }
                          }
                        }
                      }
                    }
                  }
                }
              }
            }
          }
        }
      }
    }
  }
}
MOTION
Frames: 2
Frame Time: 0.00833333
2.250000000000000000e+03 0.000000000000000000e+00 0.000000000000000000e+00 0.000000000000000000e+00 0.000000000000000000e+00 0.000000000000000000e+00 2.378450000000000131e+01 -2.711129999999999995e+01 -1.234989999999999810e+02 -6.080730000000000857e+00 -5.721309999999999008e+01 2.525400000000000134e+01 -7.368719999999999715e+00 2.376269999999999882e+01 1.834939999999999571e+00 1.257569999999999766e+01 -2.097239999999999327e+00 8.113880000000000337e+01 1.200589999999999868e+01 -4.176720000000000255e+01 2.022110000000000340e+01 2.453199999999999825e+00 9.264779999999998239e+00 6.337099999999999511e+00 -1.547710000000000008e+01 4.832709999999999617e+00 1.191539999999999964e+02 -6.177589999999999471e+00 1.895840000000000103e+01 1.400380000000000003e+01 -1.298039999999999861e+00 8.226490000000000080e+00 4.091269999999999740e+00 -1.915930000000000355e+00 6.838329999999999131e+00 5.404770000000000962e+00 -2.620689999999999742e+00 -7.552399999999999114e-01 1.617050000000000098e+00 -5.328459999999999752e+01 -1.301149999999999984e+01 3.123129999999999740e+01 -3.530719999999999459e+01 1.116730000000000089e+01 1.966519999999999868e+01 9.406620000000000203e+00 -8.839079999999999160e+00 1.614110000000000156e+01 3.183700000000000330e+01 1.334259999999999735e+01 6.231740000000000634e+01 -1.013519999999999754e+02 -7.882250000000001933e+01 -9.854670000000000130e+01 1.046450000000000102e+01 -9.343669999999999476e+00 -4.610490000000000421e+00 2.818400000000000105e+01 1.072940000000000005e+01 1.915919999999999845e+01 2.915390000000000225e-15 -6.361110000000000530e-15 -1.000000000000000000e+01 1.074289999999999871e-14 -3.180550000000000771e-15 -1.000000000000000000e+01 1.590280000000000274e-15 -6.361109999999998163e-15 3.180550000000000771e-15 1.998179999999999978e+01 8.718970000000000331e-01 2.396399999999999864e+00 2.400000000000000000e+01 1.590280000000000274e-15 6.361109999999996586e-15 2.000000000000000000e+01 -7.951389999999999226e-16 3.180549999999997615e-15 1.590280000000000274e-15 -6.361109999999998163e-15 3.180550000000000771e-15 2.000000000000000000e+01 -1.590280000000000274e-15 -3.180550000000000376e-15 2.400000000000000000e+01 4.373259999999999596e-15 6.361109999999999741e-15 2.000000000000000000e+01 7.951389999999999226e-16 -3.180550000000000771e-15 1.590280000000000274e-15 -6.361109999999998163e-15 3.180550000000000771e-15 1.997479999999999833e+01 -1.025649999999999951e+00 -2.819380000000000219e+00 2.400000000000000000e+01 7.156249999999999484e-15 2.226389999999999955e-14 2.000000000000000000e+01 3.180550000000000771e-15 1.908330000000000462e-14 1.590280000000000274e-15 -6.361109999999998163e-15 3.180550000000000771e-15 1.978150000000000119e+01 -3.009479999999999933e+00 -8.305149999999999366e+00 2.400000000000000000e+01 3.975690000000000513e-16 9.541660000000000512e-15 2.000000000000000000e+01 -1.590279999999999485e-15 6.361109999999999741e-15 -2.474769999999999825e+01 -7.809949999999999726e+00 -1.460419999999999874e+01 -2.850840000000000529e+01 4.360979999999999279e+01 -8.436639999999999873e+01 -1.144350000000000023e+01 7.510100000000000442e+00 1.414400000000000190e+01 -1.058720000000000141e+02 -6.966280000000000427e+01 -1.281829999999999927e+02 -2.818400000000000105e+01 1.072940000000000005e+01 -1.915919999999999845e+01 1.547170000000001828e-15 9.541660000000000512e-15 1.000000000000000000e+01 8.006409999999999872e-15 9.541659999999998934e-15 1.000000000000000000e+01 -3.180549999999999193e-15 0.000000000000000000e+00 -7.951389999999995282e-16 -1.998179999999999978e+01 8.718970000000000331e-01 -2.396399999999999864e+00 -2.400000000000000000e+01 1.590279999999999485e-15 3.180550000000000771e-15 -2.000000000000000000e+01 -1.192709999999999614e-15 3.180550000000000771e-15 -3.180549999999999193e-15 0.000000000000000000e+00 -7.951389999999995282e-16 -2.000000000000000000e+01 0.000000000000000000e+00 -3.180550000000000376e-15 -2.400000000000000000e+01 -3.975690000000002091e-15 3.180549999999994460e-15 -2.000000000000000000e+01 -2.981769999999999540e-15 6.361109999999999741e-15 -3.180549999999999193e-15 0.000000000000000000e+00 -7.951389999999995282e-16 -1.997479999999999833e+01 -1.025649999999999951e+00 2.819380000000000219e+00 -2.400000000000000000e+01 -3.975689999999998936e-15 4.770830000000003411e-15 -2.000000000000000000e+01 -3.180550000000000771e-15 1.272220000000000151e-14 -3.180549999999999193e-15 0.000000000000000000e+00 -7.951389999999995282e-16 -1.978150000000000119e+01 -3.009479999999999933e+00 8.305149999999999366e+00 -2.400000000000000000e+01 2.385419999999999622e-15 9.541660000000003667e-15 -2.000000000000000000e+01 -2.584200000000000064e-15 1.113189999999999773e-14
2.250000000000000000e+03 0.000000000000000000e+00 0.000000000000000000e+00 0.000000000000000000e+00 0.000000000000000000e+00 0.000000000000000000e+00 2.377429999999999666e+01 -2.712120000000000175e+01 -1.234900000000000091e+02 -6.085030000000001493e+00 -5.720779999999999177e+01 2.524799999999999756e+01 -7.380799999999999805e+00 2.375400000000000489e+01 1.849930000000000518e+00 1.257610000000000028e+01 -2.095800000000000551e+00 8.112560000000000571e+01 1.199089999999999989e+01 -4.177380000000000138e+01 2.022060000000000102e+01 2.446050000000000058e+00 9.257569999999997634e+00 6.337630000000000763e+00 -1.547040000000000148e+01 4.848469999999999835e+00 1.191479999999999819e+02 -6.175019999999999953e+00 1.896349999999999980e+01 1.399189999999999756e+01 -1.297229999999999883e+00 8.223860000000000170e+00 4.087030000000001273e+00 -1.915410000000000057e+00 6.841490000000000293e+00 5.398619999999999308e+00 -2.620769999999999822e+00 -7.550480000000001635e-01 1.616909999999999847e+00 -5.328640000000000043e+01 -1.301609999999999800e+01 3.123269999999999769e+01 -3.530960000000000321e+01 1.116779999999999973e+01 1.966710000000000136e+01 9.403700000000000614e+00 -8.837160000000000792e+00 1.614320000000000022e+01 3.184039999999999893e+01 1.331429999999999936e+01 6.230689999999999884e+01 -1.013449999999999989e+02 -7.883939999999998349e+01 -9.856430000000000291e+01 1.046940000000000026e+01 -9.326109999999999900e+00 -4.610380000000001033e+00 2.818400000000000105e+01 1.072940000000000005e+01 1.915919999999999845e+01 1.053990000000000389e-15 -3.180549999999998799e-15 -1.000000000000000000e+01 -1.130369999999999946e-14 0.000000000000000000e+00 -1.000000000000000000e+01 0.000000000000000000e+00 -9.541659999999998934e-15 3.180549999999999587e-15 1.998179999999999978e+01 8.718970000000000331e-01 2.396399999999999864e+00 2.400000000000000000e+01 1.590279999999999485e-15 -3.180550000000000771e-15 2.000000000000000000e+01 0.000000000000000000e+00 -3.180549999999997615e-15 0.000000000000000000e+00 -9.541659999999998934e-15 3.180549999999999587e-15 2.000000000000000000e+01 4.770830000000000256e-15 1.272219999999999993e-14 2.400000000000000000e+01 1.987849999999999751e-15 3.180550000000000771e-15 2.000000000000000000e+01 0.000000000000000000e+00 3.180550000000000771e-15 0.000000000000000000e+00 -9.541659999999998934e-15 3.180549999999999587e-15 1.997479999999999833e+01 -1.025649999999999951e+00 -2.819380000000000219e+00 2.400000000000000000e+01 1.391490000000000055e-15 0.000000000000000000e+00 2.000000000000000000e+01 -1.590280000000000274e-15 -9.541660000000000512e-15 0.000000000000000000e+00 -9.541659999999998934e-15 3.180549999999999587e-15 1.978150000000000119e+01 -3.009479999999999933e+00 -8.305149999999999366e+00 2.400000000000000000e+01 -3.180549999999999982e-15 -3.180550000000000771e-15 2.000000000000000000e+01 -1.590280000000001063e-15 -9.541659999999997356e-15 -2.473539999999999850e+01 -7.797009999999999330e+00 -1.462139999999999773e+01 -2.865590000000000259e+01 4.355830000000000979e+01 -8.418770000000000664e+01 -1.148040000000000127e+01 7.675549999999999429e+00 1.408109999999999928e+01 -1.059449999999999932e+02 -6.967170000000001551e+01 -1.282769999999999868e+02 -2.818400000000000105e+01 1.072940000000000005e+01 -1.915919999999999845e+01 1.179679999999999952e-14 6.361109999999998163e-15 1.000000000000000000e+01 6.739649999999998197e-15 -1.590280000000001063e-15 1.000000000000000000e+01 -3.180549999999999193e-15 -3.180550000000000376e-15 -1.590279999999999880e-15 -1.998179999999999978e+01 8.718970000000000331e-01 -2.396399999999999864e+00 -2.400000000000000000e+01 -1.590279999999999485e-15 1.272220000000000308e-14 -2.000000000000000000e+01 -3.975690000000000513e-16 1.272219999999999993e-14 -3.180549999999999193e-15 -3.180550000000000376e-15 -1.590279999999999880e-15 -2.000000000000000000e+01 0.000000000000000000e+00 7.951389999999999226e-15 -2.400000000000000000e+01 3.180550000000000771e-15 1.590280000000000747e-14 -2.000000000000000000e+01 -2.186630000000000192e-15 3.180550000000000771e-15 -3.180549999999999193e-15 -3.180550000000000376e-15 -1.590279999999999880e-15 -1.997479999999999833e+01 -1.025649999999999951e+00 2.819380000000000219e+00 -2.400000000000000000e+01 -3.180550000000002348e-15 9.541660000000006823e-15 -2.000000000000000000e+01 -1.391490000000000253e-15 9.541660000000000512e-15 -3.180549999999999193e-15 -3.180550000000000376e-15 -1.590279999999999880e-15 -1.978150000000000119e+01 -3.009479999999999933e+00 8.305149999999999366e+00 -2.400000000000000000e+01 -3.975690000000001302e-15 9.541660000000000512e-15 -2.000000000000000000e+01 7.951390000000004157e-16 1.272219999999999993e-14
